<?xml version="1.0" encoding="UTF-8"?> <svg xmlns="http://www.w3.org/2000/svg" width="92.882" height="27.249" viewBox="0 0 92.882 27.249"><defs><style>.a{fill:#23235d;}.b{fill:#385bf8;}</style></defs><g transform="translate(0)"><g transform="translate(0 0)"><g transform="translate(0 0)"><path class="a" d="M-234.9-96.8c0,6.188,4.264,10.955,10.866,10.955a11.785,11.785,0,0,0,7.432-2.606,1.15,1.15,0,0,0,.178-1.717l-.592-.8a1.073,1.073,0,0,0-1.717-.207,8.806,8.806,0,0,1-5.152,1.836c-4.53,0-7.076-3.583-7.076-7.521,0-3.879,2.458-7.225,7.047-7.225a8.751,8.751,0,0,1,4.737,1.48c.711.444,1.273.385,1.688-.3l.533-.859a1.15,1.15,0,0,0-.237-1.717,11.729,11.729,0,0,0-6.869-2.1A10.486,10.486,0,0,0-234.9-96.8Zm21.525,9.356a1.111,1.111,0,0,0,1.244,1.244h1.273a1.1,1.1,0,0,0,1.244-1.244v-5.774c0-2.872,1.717-5,4.352-5,1.895,0,2.369,1.244,2.369,3.079v7.7a1.1,1.1,0,0,0,1.244,1.244h1.273a1.111,1.111,0,0,0,1.244-1.244v-8.468c0-4-1.925-5.744-5.27-5.744a5.944,5.944,0,0,0-5.241,3.05h-.059a8.569,8.569,0,0,0,.089-1.273v-6.1a1.111,1.111,0,0,0-1.244-1.244h-1.273a1.124,1.124,0,0,0-1.244,1.244Zm16.818-6.307a7.738,7.738,0,0,0,8.113,7.906,9.544,9.544,0,0,0,5.122-1.51,1.125,1.125,0,0,0,.414-1.658l-.355-.592c-.385-.681-.918-.77-1.658-.415a6.242,6.242,0,0,1-3.257.977,4.34,4.34,0,0,1-4.53-4.145h9.208a1.309,1.309,0,0,0,1.3-1.273c0-4.145-2.4-7.195-6.692-7.195C-193.417-101.656-196.555-98.4-196.555-93.751Zm3.938-1.717a3.679,3.679,0,0,1,3.642-3.346c1.717,0,2.99,1.244,3.05,3.346Zm13.146,8.024a1.111,1.111,0,0,0,1.244,1.244h1.273a1.1,1.1,0,0,0,1.244-1.244V-92.8h1.954l3.523,5.744a1.5,1.5,0,0,0,1.451.859h1.6c1.007,0,1.332-.622.829-1.48l-4.441-6.81v-.059l3.76-5.27c.563-.8.237-1.48-.77-1.48h-1.421a1.547,1.547,0,0,0-1.48.829l-3.139,4.5h-1.865v-10.008a1.111,1.111,0,0,0-1.244-1.244h-1.273a1.124,1.124,0,0,0-1.244,1.244Zm15.781,0a1.09,1.09,0,0,0,1.214,1.244h1.3a1.09,1.09,0,0,0,1.214-1.244v-12.613a1.1,1.1,0,0,0-1.214-1.244h-1.3a1.1,1.1,0,0,0-1.214,1.244Zm7.461,0a1.09,1.09,0,0,0,1.214,1.244h1.3a1.09,1.09,0,0,0,1.214-1.244v-5.833c0-2.724,1.688-4.945,4.352-4.945,1.895,0,2.369,1.244,2.369,3.079v7.7a1.111,1.111,0,0,0,1.244,1.244h1.273a1.1,1.1,0,0,0,1.244-1.244v-8.468c0-4-1.925-5.744-5.27-5.744a5.89,5.89,0,0,0-5.359,3.2h-.059a4.827,4.827,0,0,0,.059-.681v-.918a1.1,1.1,0,0,0-1.214-1.244h-1.155a1.1,1.1,0,0,0-1.214,1.244Z" transform="translate(234.898 113.095)"></path><g transform="translate(67.951)"><g transform="translate(0)"><path class="b" d="M91.762,203.76a1.125,1.125,0,0,1,0,1.562l-.871.871a1.124,1.124,0,0,1-1.562,0l-3.814-3.844a1.124,1.124,0,0,1,0-1.562l.871-.871a1.125,1.125,0,0,1,1.562,0Z" transform="translate(-85.2 -196.807)"></path><path class="b" d="M171.323,125.515a1.124,1.124,0,0,1,1.562,0l.871.871a1.124,1.124,0,0,1,0,1.562l-6.607,6.577a1.124,1.124,0,0,1-1.562,0l-.871-.871a1.125,1.125,0,0,1,0-1.562Z" transform="translate(-161.427 -125.2)"></path></g></g></g></g></g></svg> 